<?xml version="1.0" encoding="utf-8"?>
<!-- Generator: Adobe Illustrator 25.1.0, SVG Export Plug-In . SVG Version: 6.00 Build 0)  -->
<svg version="1.1" id="Layer_1" xmlns="http://www.w3.org/2000/svg" xmlns:xlink="http://www.w3.org/1999/xlink" x="0px" y="0px"
	 viewBox="0 0 120 158" style="enable-background:new 0 0 120 158;" xml:space="preserve">
<style type="text/css">
	.st0{fill:#FFEEA4;}
	.st1{fill:#FFFFFF;}
	.st2{font-family:'OpenSans-Bold';}
	.st3{font-size:12.99px;}
	.st4{stroke:#000000;stroke-width:0.5;stroke-miterlimit:10;}
</style>
<g>
	<g id="Layer_2_1_">
		<g id="Layer_11">
			
				<image style="overflow:visible;opacity:0.3;enable-background:new    ;" width="120" height="158" xlink:href="4BF0648D56E851D8.html" >
			</image>
			<path class="st0" d="M28.8,147c-12,0-21.6-9.7-21.7-21.7V28.6C7.2,16.7,16.8,7,28.8,7h58.4c12,0,21.6,9.7,21.7,21.6V147H28.8z"/>
			<path class="st1" d="M87.2,10c10.3,0,18.7,8.3,18.7,18.6c0,0,0,0,0,0V144H28.8c-10.3,0-18.7-8.3-18.7-18.6c0,0,0,0,0,0V28.6
				c0-10.3,8.3-18.7,18.6-18.7c0,0,0,0,0,0H87.2 M87.2,4H28.8C15.2,4,4.2,15,4.1,28.6v96.7c0,13.6,11,24.6,24.7,24.7h83.1V28.6
				C111.8,15,100.8,4,87.2,4z"/>
			<path class="st1" d="M28.2,20h60.7c4.5,0,8.2,3.7,8.2,8.2c0,0,0,0,0,0V97l0,0H28.2c-4.5,0-8.2-3.7-8.2-8.2c0,0,0,0,0,0V28.2
				C20,23.7,23.7,20,28.2,20L28.2,20z"/>
			<path d="M42,61h2.9v2.9h2.9v2.9H33.3v-3h2.9V58H42V61z M79.8,87.1h2.9v-2.9h-2.9V87.1z M85.6,87.1h2.9v-2.9h-2.9V87.1z M50.7,90
				h5.8v-2.9h-5.8V90z M76.9,90v-2.9H74V90H76.9z M65.3,90h2.9v-5.8h-2.9V90z M39.1,55.1v-2.9h-5.8v5.8h2.9v-2.9L39.1,55.1z
				 M47.8,49.3H27.5V29h20.3L47.8,49.3z M44.9,31.9H30.4v14.5h14.5V31.9z M33.3,84.2H42v-8.7h-8.7V84.2z M42,34.8h-8.7v8.7H42V34.8z
				 M88.5,29v20.3H68.2V29H88.5z M85.6,31.9H71.1v14.5h14.5V31.9z M27.5,69.7h20.3V90H27.5V69.7z M30.4,87.1h14.5V72.6H30.4V87.1z
				 M30.4,52.2h-2.9v14.5h2.9V52.2z M59.5,78.4v-2.9h-2.9v2.9h-5.8v5.8h5.8v2.9h2.9v-5.8h2.9v-2.9H59.5z M74,63.9h5.8v2.9h2.9V58
				h-2.9v-5.8h-2.9V61h-8.7v2.9h2.9v2.9H74V63.9z M76.9,72.6H74v-2.9h-2.9v5.8h-8.7v2.9h5.8v5.8h2.9v2.9H74v-5.8h11.6v-2.9h-8.7
				L76.9,72.6L76.9,72.6z M53.7,72.6v-2.9h2.9v-2.9h2.9v-2.9h2.9V58h8.7v-5.8h-2.9v2.9h-2.9V43.5h-2.9v-5.8h2.9V29h-2.9v5.8h-2.9V29
				h-8.7v5.8h2.9v-2.9h2.9v5.8h2.9v8.7h2.9v2.9h-2.9v5.8h-2.9v-5.8h-2.9v-2.9h-2.9v5.8h2.9v2.9h-2.9v8.7h2.9V58h2.9v5.8h-2.9v2.9
				h-2.9v8.7h5.8v-2.9H53.7z M85.7,75.5v-2.9h-5.8v2.9H85.7z M82.8,34.8H74v8.7h8.7L82.8,34.8z M82.7,55.1h5.8v-2.9h-5.8V55.1z
				 M85.6,78.4h2.9v-2.9h-2.9L85.6,78.4z M85.6,60.9h2.9V58h-2.9L85.6,60.9z"/>
			<text transform="matrix(1 0 0 1 43.5 126.66)" class="st2 st3">Scan Me</text>
			<polygon class="st1" points="87,97 97,108 97,97 			"/>
			<path class="st4" d="M39,122.7c0-0.3,0-0.7-0.1-1c0-0.2-0.2-0.3-0.4-0.2c0,0,0,0,0,0c-0.2,0-0.2,0.2-0.2,0.4c0,0,0,0,0,0
				c0.1,0.3,0.1,0.5,0.1,0.8c0,0.8-0.3,1.6-0.9,2.2c-0.3,0.2-0.6,0.5-0.9,0.6c-0.1,0.1-0.2,0.2-0.1,0.4c0,0.1,0.2,0.2,0.3,0.2
				c0,0,0.1,0,0.1,0c0.3-0.1,0.5-0.3,0.8-0.5c-1.6,2.7-5.1,3.7-7.8,2.1c-0.4-0.2-0.7-0.5-1-0.7h2.8c0.8,0,1.4-0.6,1.4-1.4v-0.1
				c0-0.3-0.1-0.6-0.3-0.8c-0.8-1.2-0.8-2.8,0.2-3.9c0.1-0.2,0.3-0.3,0.5-0.4c0.1-0.1,0.1-0.3,0-0.4c0,0,0,0,0,0l-2.2-2.2
				c-0.2-0.2-0.3-0.5-0.3-0.8c0-0.6,0.5-1.2,1.1-1.2c0.3,0,0.7,0.1,0.9,0.4l1.6,1.6l0,0l3,2.9c0.1,0.1,0.3,0.3,0.4,0.4
				c0.1,0.1,0.3,0.2,0.4,0.1c0.1-0.1,0.2-0.3,0.1-0.4c0,0,0,0,0,0c-0.1-0.2-0.3-0.4-0.4-0.5l-3-2.8v-6.4c0-0.8-0.6-1.4-1.4-1.4h0H27
				c-0.2,0-0.3,0.2-0.2,0.3c0,0.1,0.1,0.2,0.2,0.2h6.6c0.4,0,0.8,0.4,0.8,0.8v0.3H24v-0.3c0-0.4,0.4-0.8,0.8-0.8h1.1
				c0.2,0,0.3-0.1,0.3-0.2c0-0.2-0.1-0.3-0.2-0.3c0,0-0.1,0-0.1,0h-1.1c-0.8,0-1.4,0.6-1.4,1.4l0,0v4.4c-0.8,0.1-1.4,0.8-1.4,1.7
				c0,0.5,0.3,1.1,0.7,1.4c-0.8,0.5-0.9,1.6-0.4,2.3c0.2,0.3,0.6,0.6,1,0.7v4.3c0,0.8,0.6,1.4,1.4,1.4c0,0,0,0,0,0H28l0.2,0.2
				c1.2,1.2,2.8,1.9,4.5,1.9c3.4,0,6.2-2.8,6.3-6.2V122.7z M34.5,111.7v4.9l-1.1-1.1c-0.7-0.7-1.8-0.7-2.5-0.1
				c-0.4,0.3-0.5,0.8-0.5,1.3c0,0.5,0.2,0.9,0.5,1.2l2,2c-0.1,0.1-0.2,0.2-0.3,0.3c-0.7,0.8-1,1.9-0.9,2.9H24v-11.6L34.5,111.7z
				 M22.6,116.8c0-0.5,0.3-0.9,0.8-1v2.1C22.9,117.8,22.6,117.3,22.6,116.8z M22.6,119.6c0-0.5,0.3-0.9,0.8-1v2.1
				C22.9,120.5,22.6,120.1,22.6,119.6z M24,125.6v-1.7h7.9c0.1,0.4,0.3,0.8,0.5,1.1c0.1,0.1,0.2,0.3,0.2,0.5v0.1
				c0,0.5-0.4,0.8-0.8,0.8h-6.9C24.3,126.3,24,126,24,125.6C24,125.5,24,125.5,24,125.6L24,125.6z"/>
			<path d="M30.1,123.7h-1.8c-0.2,0-0.3,0.2-0.2,0.3c0,0.1,0.1,0.2,0.2,0.2h1.8c0.2,0,0.3-0.2,0.2-0.3
				C30.3,123.8,30.2,123.7,30.1,123.7z"/>
		</g>
	</g>
</g>
</svg>
