<?xml version="1.0" encoding="utf-8"?>
<!-- Generator: Adobe Illustrator 25.1.0, SVG Export Plug-In . SVG Version: 6.00 Build 0)  -->
<svg version="1.1" id="Layer_1" xmlns="http://www.w3.org/2000/svg" xmlns:xlink="http://www.w3.org/1999/xlink" x="0px" y="0px"
	 viewBox="0 0 118 158" style="enable-background:new 0 0 118 158;" xml:space="preserve">
<style type="text/css">
	.st0{fill:#C7FFF0;}
	.st1{fill:#FFFFFF;}
	.st2{fill:#00E6AF;}
	.st3{font-family:'OpenSans-Bold';}
	.st4{font-size:12.99px;}
</style>
<g>
	<g id="Layer_2_1_">
		<g id="Layer_10">
			
				<image style="overflow:visible;opacity:0.3;enable-background:new    ;" width="118" height="158" xlink:href="4BE7F9809CD9FD91.html" >
			</image>
			<path class="st0" d="M27,5.5h60c11.9,0,21.5,9.6,21.5,21.5v100c0,11.9-9.6,21.5-21.5,21.5H27c-11.9,0-21.5-9.6-21.5-21.5V27
				C5.5,15.1,15.1,5.5,27,5.5z"/>
			<path class="st1" d="M87,7c11,0,20,9,20,20v100c0,11-9,20-20,20H27c-11,0-20-9-20-20V27C7,16,16,7,27,7H87 M87,4H27
				C14.3,4,4,14.3,4,27v100c0,12.7,10.3,23,23,23h60c12.7,0,23-10.3,23-23V27C110,14.3,99.7,4,87,4z"/>
			<path class="st2" d="M107,128c0,0-3-9.5-6-14c-2-3-4.4-7-10.2-7H27.7C16.3,107,7,97.7,7,86.3c0,0,0,0,0,0V27.7
				C7,16.3,16.3,7,27.7,7c0,0,0,0,0,0h58.5C97.7,7,107,16.3,107,27.7c0,0,0,0,0,0V128z"/>
			<path class="st1" d="M26.7,19h60.7c4.5,0,8.2,3.7,8.2,8.2v60.7c0,4.5-3.7,8.2-8.2,8.2H26.7c-4.5,0-8.2-3.7-8.2-8.2V27.2
				C18.5,22.7,22.2,19,26.7,19z"/>
			<path d="M41.5,59h2.9v2.9h2.9v2.9H32.8v-3h2.9V56h5.8C41.5,56,41.5,59,41.5,59z M79.3,85.1h2.9v-2.9h-2.9V85.1z M85.1,85.1H88
				v-2.9h-2.9V85.1z M50.2,88h5.8v-2.9h-5.8V88z M76.4,88v-2.9h-2.9V88H76.4z M64.8,88h2.9v-5.8h-2.9V88z M38.6,53.1v-2.9h-5.8v5.8
				h2.9v-2.9L38.6,53.1z M47.3,47.3H27V27h20.3V47.3z M44.4,29.9H29.9v14.5h14.5V29.9z M32.8,82.2h8.7v-8.7h-8.7V82.2z M61.9,79.3
				v2.9h2.9v-2.9H61.9z M41.5,32.8h-8.7v8.7h8.7L41.5,32.8z M88,27v20.3H67.7V27H88z M85.1,29.9H70.6v14.5h14.5V29.9z M27,67.7h20.3
				V88H27V67.7z M29.9,85.1h14.5V70.6H29.9V85.1z M29.9,50.2H27v14.5h2.9V50.2z M59,76.4v-2.9h-2.9v2.9h-5.9v5.8h5.8v2.9H59v-5.8
				h2.9v-2.9H59z M73.5,61.9h5.8v2.9h2.9V56h-2.9v-5.8h-2.9V59h-8.7v2.9h2.9v2.9h2.9L73.5,61.9L73.5,61.9z M76.4,70.6h-2.9v-2.9
				h-2.9v5.8h-8.7v2.9h5.8v5.8h2.9v2.9h2.9v-5.8h11.6v-2.9h-8.7L76.4,70.6L76.4,70.6z M53.2,70.6v-2.9h2.9v-2.9H59v-2.9h2.9V56h8.7
				v-5.8h-2.9v2.9h-3V41.5h-2.9v-5.8h2.9V27h-2.9v5.8H59V27h-8.8v5.8h2.9v-2.9H56v5.8h3v8.7h2.9v2.9H59v5.8h-3v-5.8h-2.9v-2.9h-2.9
				v5.8h2.9v2.9h-2.9v8.7h2.9V56H56v5.8h-2.9v2.9h-2.9v8.7H56v-2.9H53.2z M85.1,73.5v-2.9h-5.8v2.9H85.1z M82.2,32.8h-8.7v8.7h8.7
				V32.8z M85.1,76.4H88v-2.9h-2.9L85.1,76.4z"/>
			<text transform="matrix(1 0 0 1 40.5 129.66)" class="st3 st4">Scan Me</text>
			<path d="M33.1,125.3h-1.9c-0.5,0-0.9,0.4-0.9,0.9l0,0v0.1c0,0.5,0.4,0.9,0.9,0.9c0,0,0,0,0,0h1.9c0.5,0,0.9-0.4,0.9-0.9l0,0v-0.1
				C34,125.7,33.6,125.3,33.1,125.3L33.1,125.3z"/>
			<path d="M33.1,123.2h-0.4v-4.2c0-0.6-0.5-1.1-1.1-1.1h-7.3c-0.6,0-1.1,0.5-1.1,1.1v3c-1.5,0.8-3,1.7-3,1.7c-0.8,0.3-2,1.4-2,4
				c0,0.2,0,0.4,0,0.6c0,0.1,0,0.1,0,0.2c0,0.1,0,0.3,0.1,0.4v0.1c0,0.2,0.1,0.3,0.1,0.4l0.1,0.2c0,0.1,0.1,0.1,0.1,0.2l0.1,0.2l0,0
				c0.7,1,1.8,1.6,3,1.6h1.3v1.3c0,0.6,0.5,1.1,1.1,1.1c0,0,0,0,0,0h7.3c0.6,0,1.1-0.5,1.1-1.1l0,0v-1.5H33c0.5,0,0.9-0.4,0.9-0.9
				c0,0,0,0,0,0v-0.1c0-0.5-0.4-0.9-0.9-0.9h-1.7c-0.5,0-0.9,0.4-0.9,0.9v0.1c0,0.5,0.4,0.9,0.9,0.9H32v0.6h-8v-7.8
				c0.4-0.2,0.8-0.5,1-0.7c1.1-0.8,2.1-1.5,2.2-2.1c0.2-0.8-0.4-1.4-1.5-0.9c-0.3,0.2-1,0.5-1.8,1v-2h8v3.6h-0.7
				c-0.5,0-0.9,0.4-0.9,0.9l0,0v0.1c0,0.5,0.4,0.9,0.9,0.9c0,0,0,0,0,0h1.9c0.5,0,0.9-0.4,0.9-0.9l0,0V124
				C34,123.5,33.6,123.1,33.1,123.2C33.1,123.2,33.1,123.2,33.1,123.2z M28,132.5c0.3,0,0.6,0.2,0.6,0.6s-0.2,0.6-0.5,0.6
				s-0.5-0.2-0.6-0.6S27.7,132.5,28,132.5L28,132.5z M29.2,118.9h-2.3c-0.1,0-0.1-0.1-0.1-0.1c0-0.1,0-0.1,0.1-0.1c0,0,0,0,0,0h2.3
				c0.1,0,0.1,0.1,0.1,0.1c0,0,0,0,0,0C29.3,118.8,29.2,118.9,29.2,118.9L29.2,118.9z"/>
			<path d="M33.1,127.5h-1.9c-0.5,0-0.9,0.4-0.9,0.9l0,0v0.1c0,0.5,0.4,0.9,0.9,0.9h1.9c0.5,0,0.9-0.4,0.9-0.9v-0.1
				C34,127.9,33.6,127.5,33.1,127.5L33.1,127.5z"/>
		</g>
	</g>
</g>
</svg>
