<svg xmlns="http://www.w3.org/2000/svg" viewBox="0 0 100 100"><defs><style>.cls-1{fill:#fff;}</style></defs><title>qr-code-circle</title><g id="Layer_2" data-name="Layer 2"><g id="def_qr" data-name="def qr"><rect class="cls-1" width="100" height="100"/><rect x="42" y="10" width="3.2" height="3.2"/><rect x="58" y="10" width="3.2" height="3.2"/><rect x="61.2" y="10" width="3.2" height="3.2"/><rect x="38.8" y="13.2" width="3.2" height="3.2"/><rect x="58" y="13.2" width="3.2" height="3.2"/><rect x="61.2" y="13.2" width="3.2" height="3.2"/><rect x="35.6" y="16.4" width="3.2" height="3.2"/><rect x="45.2" y="16.4" width="3.2" height="3.2"/><rect x="51.6" y="16.4" width="3.2" height="3.2"/><rect x="54.8" y="16.4" width="3.2" height="3.2"/><rect x="58" y="16.4" width="3.2" height="3.2"/><rect x="38.8" y="19.6" width="3.2" height="3.2"/><rect x="48.4" y="19.6" width="3.2" height="3.2"/><rect x="54.8" y="19.6" width="3.2" height="3.2"/><rect x="58" y="19.6" width="3.2" height="3.2"/><rect x="61.2" y="19.6" width="3.2" height="3.2"/><rect x="38.8" y="22.8" width="3.2" height="3.2"/><rect x="48.4" y="22.8" width="3.2" height="3.2"/><rect x="54.8" y="22.8" width="3.2" height="3.2"/><rect x="58" y="22.8" width="3.2" height="3.2"/><rect x="42" y="26" width="3.2" height="3.2"/><rect x="45.2" y="26" width="3.2" height="3.2"/><rect x="48.4" y="26" width="3.2" height="3.2"/><rect x="54.8" y="26" width="3.2" height="3.2"/><rect x="58" y="26" width="3.2" height="3.2"/><rect x="35.6" y="29.2" width="3.2" height="3.2"/><rect x="42" y="29.2" width="3.2" height="3.2"/><rect x="48.4" y="29.2" width="3.2" height="3.2"/><rect x="54.8" y="29.2" width="3.2" height="3.2"/><rect x="61.2" y="29.2" width="3.2" height="3.2"/><rect x="35.6" y="32.4" width="3.2" height="3.2"/><rect x="45.2" y="32.4" width="3.2" height="3.2"/><rect x="51.6" y="32.4" width="3.2" height="3.2"/><rect x="61.2" y="32.4" width="3.2" height="3.2"/><rect x="10" y="35.6" width="3.2" height="3.2"/><rect x="13.2" y="35.6" width="3.2" height="3.2"/><rect x="16.4" y="35.6" width="3.2" height="3.2"/><rect x="22.8" y="35.6" width="3.2" height="3.2"/><rect x="26" y="35.6" width="3.2" height="3.2"/><rect x="29.2" y="35.6" width="3.2" height="3.2"/><rect x="32.4" y="35.6" width="3.2" height="3.2"/><rect x="35.6" y="35.6" width="3.2" height="3.2"/><rect x="48.4" y="35.6" width="3.2" height="3.2"/><rect x="51.6" y="35.6" width="3.2" height="3.2"/><rect x="54.8" y="35.6" width="3.2" height="3.2"/><rect x="64.4" y="35.6" width="3.2" height="3.2"/><rect x="67.6" y="35.6" width="3.2" height="3.2"/><rect x="80.4" y="35.6" width="3.2" height="3.2"/><rect x="16.4" y="38.8" width="3.2" height="3.2"/><rect x="22.8" y="38.8" width="3.2" height="3.2"/><rect x="26" y="38.8" width="3.2" height="3.2"/><rect x="32.4" y="38.8" width="3.2" height="3.2"/><rect x="38.8" y="38.8" width="3.2" height="3.2"/><rect x="45.2" y="38.8" width="3.2" height="3.2"/><rect x="48.4" y="38.8" width="3.2" height="3.2"/><rect x="51.6" y="38.8" width="3.2" height="3.2"/><rect x="54.8" y="38.8" width="3.2" height="3.2"/><rect x="58" y="38.8" width="3.2" height="3.2"/><rect x="64.4" y="38.8" width="3.2" height="3.2"/><rect x="67.6" y="38.8" width="3.2" height="3.2"/><rect x="74" y="38.8" width="3.2" height="3.2"/><rect x="83.6" y="38.8" width="3.2" height="3.2"/><rect x="13.2" y="42" width="3.2" height="3.2"/><rect x="19.6" y="42" width="3.2" height="3.2"/><rect x="22.8" y="42" width="3.2" height="3.2"/><rect x="29.2" y="42" width="3.2" height="3.2"/><rect x="42" y="42" width="3.2" height="3.2"/><rect x="45.2" y="42" width="3.2" height="3.2"/><rect x="48.4" y="42" width="3.2" height="3.2"/><rect x="51.6" y="42" width="3.2" height="3.2"/><rect x="61.2" y="42" width="3.2" height="3.2"/><rect x="64.4" y="42" width="3.2" height="3.2"/><rect x="67.6" y="42" width="3.2" height="3.2"/><rect x="77.2" y="42" width="3.2" height="3.2"/><rect x="10" y="45.2" width="3.2" height="3.2"/><rect x="16.4" y="45.2" width="3.2" height="3.2"/><rect x="22.8" y="45.2" width="3.2" height="3.2"/><rect x="26" y="45.2" width="3.2" height="3.2"/><rect x="32.4" y="45.2" width="3.2" height="3.2"/><rect x="35.6" y="45.2" width="3.2" height="3.2"/><rect x="38.8" y="45.2" width="3.2" height="3.2"/><rect x="42" y="45.2" width="3.2" height="3.2"/><rect x="48.4" y="45.2" width="3.2" height="3.2"/><rect x="61.2" y="45.2" width="3.2" height="3.2"/><rect x="64.4" y="45.2" width="3.2" height="3.2"/><rect x="67.6" y="45.2" width="3.2" height="3.2"/><rect x="83.6" y="45.2" width="3.2" height="3.2"/><rect x="86.8" y="45.2" width="3.2" height="3.2"/><rect x="13.2" y="48.4" width="3.2" height="3.2"/><rect x="16.4" y="48.4" width="3.2" height="3.2"/><rect x="19.6" y="48.4" width="3.2" height="3.2"/><rect x="22.8" y="48.4" width="3.2" height="3.2"/><rect x="26" y="48.4" width="3.2" height="3.2"/><rect x="29.2" y="48.4" width="3.2" height="3.2"/><rect x="32.4" y="48.4" width="3.2" height="3.2"/><rect x="42" y="48.4" width="3.2" height="3.2"/><rect x="45.2" y="48.4" width="3.2" height="3.2"/><rect x="51.6" y="48.4" width="3.2" height="3.2"/><rect x="61.2" y="48.4" width="3.2" height="3.2"/><rect x="64.4" y="48.4" width="3.2" height="3.2"/><rect x="67.6" y="48.4" width="3.2" height="3.2"/><rect x="70.8" y="48.4" width="3.2" height="3.2"/><rect x="80.4" y="48.4" width="3.2" height="3.2"/><rect x="83.6" y="48.4" width="3.2" height="3.2"/><rect x="86.8" y="48.4" width="3.2" height="3.2"/><rect x="42" y="51.6" width="3.2" height="3.2"/><rect x="45.2" y="51.6" width="3.2" height="3.2"/><rect x="51.6" y="51.6" width="3.2" height="3.2"/><rect x="54.8" y="51.6" width="3.2" height="3.2"/><rect x="58" y="51.6" width="3.2" height="3.2"/><rect x="61.2" y="51.6" width="3.2" height="3.2"/><rect x="74" y="51.6" width="3.2" height="3.2"/><rect x="83.6" y="51.6" width="3.2" height="3.2"/><rect x="10" y="54.8" width="3.2" height="3.2"/><rect x="16.4" y="54.8" width="3.2" height="3.2"/><rect x="29.2" y="54.8" width="3.2" height="3.2"/><rect x="32.4" y="54.8" width="3.2" height="3.2"/><rect x="35.6" y="54.8" width="3.2" height="3.2"/><rect x="42" y="54.8" width="3.2" height="3.2"/><rect x="51.6" y="54.8" width="3.2" height="3.2"/><rect x="64.4" y="54.8" width="3.2" height="3.2"/><rect x="67.6" y="54.8" width="3.2" height="3.2"/><rect x="77.2" y="54.8" width="3.2" height="3.2"/><rect x="83.6" y="54.8" width="3.2" height="3.2"/><rect x="86.8" y="54.8" width="3.2" height="3.2"/><rect x="13.2" y="58" width="3.2" height="3.2"/><rect x="16.4" y="58" width="3.2" height="3.2"/><rect x="19.6" y="58" width="3.2" height="3.2"/><rect x="35.6" y="58" width="3.2" height="3.2"/><rect x="42" y="58" width="3.2" height="3.2"/><rect x="45.2" y="58" width="3.2" height="3.2"/><rect x="61.2" y="58" width="3.2" height="3.2"/><rect x="67.6" y="58" width="3.2" height="3.2"/><rect x="70.8" y="58" width="3.2" height="3.2"/><rect x="10" y="61.2" width="3.2" height="3.2"/><rect x="19.6" y="61.2" width="3.2" height="3.2"/><rect x="22.8" y="61.2" width="3.2" height="3.2"/><rect x="29.2" y="61.2" width="3.2" height="3.2"/><rect x="32.4" y="61.2" width="3.2" height="3.2"/><rect x="42" y="61.2" width="3.2" height="3.2"/><rect x="48.4" y="61.2" width="3.2" height="3.2"/><rect x="61.2" y="61.2" width="3.2" height="3.2"/><rect x="64.4" y="61.2" width="3.2" height="3.2"/><rect x="67.6" y="61.2" width="3.2" height="3.2"/><rect x="70.8" y="61.2" width="3.2" height="3.2"/><rect x="74" y="61.2" width="3.2" height="3.2"/><rect x="80.4" y="61.2" width="3.2" height="3.2"/><rect x="86.8" y="61.2" width="3.2" height="3.2"/><rect x="35.6" y="64.4" width="3.2" height="3.2"/><rect x="38.8" y="64.4" width="3.2" height="3.2"/><rect x="45.2" y="64.4" width="3.2" height="3.2"/><rect x="48.4" y="64.4" width="3.2" height="3.2"/><rect x="51.6" y="64.4" width="3.2" height="3.2"/><rect x="54.8" y="64.4" width="3.2" height="3.2"/><rect x="61.2" y="64.4" width="3.2" height="3.2"/><rect x="74" y="64.4" width="3.2" height="3.2"/><rect x="83.6" y="64.4" width="3.2" height="3.2"/><rect x="35.6" y="67.6" width="3.2" height="3.2"/><rect x="42" y="67.6" width="3.2" height="3.2"/><rect x="45.2" y="67.6" width="3.2" height="3.2"/><rect x="48.4" y="67.6" width="3.2" height="3.2"/><rect x="54.8" y="67.6" width="3.2" height="3.2"/><rect x="58" y="67.6" width="3.2" height="3.2"/><rect x="61.2" y="67.6" width="3.2" height="3.2"/><rect x="67.6" y="67.6" width="3.2" height="3.2"/><rect x="74" y="67.6" width="3.2" height="3.2"/><rect x="77.2" y="67.6" width="3.2" height="3.2"/><rect x="83.6" y="67.6" width="3.2" height="3.2"/><rect x="86.8" y="67.6" width="3.2" height="3.2"/><rect x="35.6" y="70.8" width="3.2" height="3.2"/><rect x="48.4" y="70.8" width="3.2" height="3.2"/><rect x="51.6" y="70.8" width="3.2" height="3.2"/><rect x="61.2" y="70.8" width="3.2" height="3.2"/><rect x="74" y="70.8" width="3.2" height="3.2"/><rect x="77.2" y="70.8" width="3.2" height="3.2"/><rect x="83.6" y="70.8" width="3.2" height="3.2"/><rect x="86.8" y="70.8" width="3.2" height="3.2"/><rect x="35.6" y="74" width="3.2" height="3.2"/><rect x="42" y="74" width="3.2" height="3.2"/><rect x="45.2" y="74" width="3.2" height="3.2"/><rect x="54.8" y="74" width="3.2" height="3.2"/><rect x="58" y="74" width="3.2" height="3.2"/><rect x="61.2" y="74" width="3.2" height="3.2"/><rect x="64.4" y="74" width="3.2" height="3.2"/><rect x="67.6" y="74" width="3.2" height="3.2"/><rect x="70.8" y="74" width="3.2" height="3.2"/><rect x="74" y="74" width="3.2" height="3.2"/><rect x="80.4" y="74" width="3.2" height="3.2"/><rect x="45.2" y="77.2" width="3.2" height="3.2"/><rect x="58" y="77.2" width="3.2" height="3.2"/><rect x="61.2" y="77.2" width="3.2" height="3.2"/><rect x="74" y="77.2" width="3.2" height="3.2"/><rect x="77.2" y="77.2" width="3.2" height="3.2"/><rect x="35.6" y="80.4" width="3.2" height="3.2"/><rect x="42" y="80.4" width="3.2" height="3.2"/><rect x="51.6" y="80.4" width="3.2" height="3.2"/><rect x="58" y="80.4" width="3.2" height="3.2"/><rect x="61.2" y="80.4" width="3.2" height="3.2"/><rect x="64.4" y="80.4" width="3.2" height="3.2"/><rect x="67.6" y="80.4" width="3.2" height="3.2"/><rect x="70.8" y="80.4" width="3.2" height="3.2"/><rect x="77.2" y="80.4" width="3.2" height="3.2"/><rect x="86.8" y="80.4" width="3.2" height="3.2"/><rect x="35.6" y="83.6" width="3.2" height="3.2"/><rect x="38.8" y="83.6" width="3.2" height="3.2"/><rect x="45.2" y="83.6" width="3.2" height="3.2"/><rect x="58" y="83.6" width="3.2" height="3.2"/><rect x="61.2" y="83.6" width="3.2" height="3.2"/><rect x="70.8" y="83.6" width="3.2" height="3.2"/><rect x="74" y="83.6" width="3.2" height="3.2"/><rect x="77.2" y="83.6" width="3.2" height="3.2"/><rect x="80.4" y="83.6" width="3.2" height="3.2"/><rect x="86.8" y="83.6" width="3.2" height="3.2"/><rect x="35.6" y="86.8" width="3.2" height="3.2"/><rect x="42" y="86.8" width="3.2" height="3.2"/><rect x="48.4" y="86.8" width="3.2" height="3.2"/><rect x="61.2" y="86.8" width="3.2" height="3.2"/><rect x="64.4" y="86.8" width="3.2" height="3.2"/><rect x="74" y="86.8" width="3.2" height="3.2"/><rect x="83.6" y="86.8" width="3.2" height="3.2"/><rect x="86.8" y="86.8" width="3.2" height="3.2"/><circle cx="78.5" cy="21.5" r="5.5"/><path d="M21.5,33A11.5,11.5,0,1,1,33,21.5,11.51,11.51,0,0,1,21.5,33Zm0-20A8.5,8.5,0,1,0,30,21.5,8.51,8.51,0,0,0,21.5,13Z"/><path d="M78.5,33A11.5,11.5,0,1,1,90,21.5,11.51,11.51,0,0,1,78.5,33Zm0-20A8.5,8.5,0,1,0,87,21.5,8.51,8.51,0,0,0,78.5,13Z"/><path d="M20.5,90A11.5,11.5,0,1,1,32,78.5,11.51,11.51,0,0,1,20.5,90Zm0-20A8.5,8.5,0,1,0,29,78.5,8.51,8.51,0,0,0,20.5,70Z"/><circle cx="21.5" cy="21.5" r="5.5"/><circle cx="20.5" cy="78.5" r="5.5"/></g></g></svg>