<svg xmlns="http://www.w3.org/2000/svg" viewBox="0 0 100 100"><defs><style>.cls-1{fill:#fff;}</style></defs><title>qr-code-round</title><g id="Layer_2" data-name="Layer 2"><g id="def_qr" data-name="def qr"><rect class="cls-1" width="100" height="100"/><rect x="42" y="10" width="3.2" height="3.2"/><rect x="58" y="10" width="3.2" height="3.2"/><rect x="61.2" y="10" width="3.2" height="3.2"/><rect x="38.8" y="13.2" width="3.2" height="3.2"/><rect x="58" y="13.2" width="3.2" height="3.2"/><rect x="61.2" y="13.2" width="3.2" height="3.2"/><rect x="35.6" y="16.4" width="3.2" height="3.2"/><rect x="45.2" y="16.4" width="3.2" height="3.2"/><rect x="51.6" y="16.4" width="3.2" height="3.2"/><rect x="54.8" y="16.4" width="3.2" height="3.2"/><rect x="58" y="16.4" width="3.2" height="3.2"/><rect x="38.8" y="19.6" width="3.2" height="3.2"/><rect x="48.4" y="19.6" width="3.2" height="3.2"/><rect x="54.8" y="19.6" width="3.2" height="3.2"/><rect x="58" y="19.6" width="3.2" height="3.2"/><rect x="61.2" y="19.6" width="3.2" height="3.2"/><rect x="38.8" y="22.8" width="3.2" height="3.2"/><rect x="48.4" y="22.8" width="3.2" height="3.2"/><rect x="54.8" y="22.8" width="3.2" height="3.2"/><rect x="58" y="22.8" width="3.2" height="3.2"/><rect x="42" y="26" width="3.2" height="3.2"/><rect x="45.2" y="26" width="3.2" height="3.2"/><rect x="48.4" y="26" width="3.2" height="3.2"/><rect x="54.8" y="26" width="3.2" height="3.2"/><rect x="58" y="26" width="3.2" height="3.2"/><rect x="35.6" y="29.2" width="3.2" height="3.2"/><rect x="42" y="29.2" width="3.2" height="3.2"/><rect x="48.4" y="29.2" width="3.2" height="3.2"/><rect x="54.8" y="29.2" width="3.2" height="3.2"/><rect x="61.2" y="29.2" width="3.2" height="3.2"/><rect x="35.6" y="32.4" width="3.2" height="3.2"/><rect x="45.2" y="32.4" width="3.2" height="3.2"/><rect x="51.6" y="32.4" width="3.2" height="3.2"/><rect x="61.2" y="32.4" width="3.2" height="3.2"/><rect x="10" y="35.6" width="3.2" height="3.2"/><rect x="13.2" y="35.6" width="3.2" height="3.2"/><rect x="16.4" y="35.6" width="3.2" height="3.2"/><rect x="22.8" y="35.6" width="3.2" height="3.2"/><rect x="26" y="35.6" width="3.2" height="3.2"/><rect x="29.2" y="35.6" width="3.2" height="3.2"/><rect x="32.4" y="35.6" width="3.2" height="3.2"/><rect x="35.6" y="35.6" width="3.2" height="3.2"/><rect x="48.4" y="35.6" width="3.2" height="3.2"/><rect x="51.6" y="35.6" width="3.2" height="3.2"/><rect x="54.8" y="35.6" width="3.2" height="3.2"/><rect x="64.4" y="35.6" width="3.2" height="3.2"/><rect x="67.6" y="35.6" width="3.2" height="3.2"/><rect x="80.4" y="35.6" width="3.2" height="3.2"/><rect x="16.4" y="38.8" width="3.2" height="3.2"/><rect x="22.8" y="38.8" width="3.2" height="3.2"/><rect x="26" y="38.8" width="3.2" height="3.2"/><rect x="32.4" y="38.8" width="3.2" height="3.2"/><rect x="38.8" y="38.8" width="3.2" height="3.2"/><rect x="45.2" y="38.8" width="3.2" height="3.2"/><rect x="48.4" y="38.8" width="3.2" height="3.2"/><rect x="51.6" y="38.8" width="3.2" height="3.2"/><rect x="54.8" y="38.8" width="3.2" height="3.2"/><rect x="58" y="38.8" width="3.2" height="3.2"/><rect x="64.4" y="38.8" width="3.2" height="3.2"/><rect x="67.6" y="38.8" width="3.2" height="3.2"/><rect x="74" y="38.8" width="3.2" height="3.2"/><rect x="83.6" y="38.8" width="3.2" height="3.2"/><rect x="13.2" y="42" width="3.2" height="3.2"/><rect x="19.6" y="42" width="3.2" height="3.2"/><rect x="22.8" y="42" width="3.2" height="3.2"/><rect x="29.2" y="42" width="3.2" height="3.2"/><rect x="42" y="42" width="3.2" height="3.2"/><rect x="45.2" y="42" width="3.2" height="3.2"/><rect x="48.4" y="42" width="3.2" height="3.2"/><rect x="51.6" y="42" width="3.2" height="3.2"/><rect x="61.2" y="42" width="3.2" height="3.2"/><rect x="64.4" y="42" width="3.2" height="3.2"/><rect x="67.6" y="42" width="3.2" height="3.2"/><rect x="77.2" y="42" width="3.2" height="3.2"/><rect x="10" y="45.2" width="3.2" height="3.2"/><rect x="16.4" y="45.2" width="3.2" height="3.2"/><rect x="22.8" y="45.2" width="3.2" height="3.2"/><rect x="26" y="45.2" width="3.2" height="3.2"/><rect x="32.4" y="45.2" width="3.2" height="3.2"/><rect x="35.6" y="45.2" width="3.2" height="3.2"/><rect x="38.8" y="45.2" width="3.2" height="3.2"/><rect x="42" y="45.2" width="3.2" height="3.2"/><rect x="48.4" y="45.2" width="3.2" height="3.2"/><rect x="61.2" y="45.2" width="3.2" height="3.2"/><rect x="64.4" y="45.2" width="3.2" height="3.2"/><rect x="67.6" y="45.2" width="3.2" height="3.2"/><rect x="83.6" y="45.2" width="3.2" height="3.2"/><rect x="86.8" y="45.2" width="3.2" height="3.2"/><rect x="13.2" y="48.4" width="3.2" height="3.2"/><rect x="16.4" y="48.4" width="3.2" height="3.2"/><rect x="19.6" y="48.4" width="3.2" height="3.2"/><rect x="22.8" y="48.4" width="3.2" height="3.2"/><rect x="26" y="48.4" width="3.2" height="3.2"/><rect x="29.2" y="48.4" width="3.2" height="3.2"/><rect x="32.4" y="48.4" width="3.2" height="3.2"/><rect x="42" y="48.4" width="3.2" height="3.2"/><rect x="45.2" y="48.4" width="3.2" height="3.2"/><rect x="51.6" y="48.4" width="3.2" height="3.2"/><rect x="61.2" y="48.4" width="3.2" height="3.2"/><rect x="64.4" y="48.4" width="3.2" height="3.2"/><rect x="67.6" y="48.4" width="3.2" height="3.2"/><rect x="70.8" y="48.4" width="3.2" height="3.2"/><rect x="80.4" y="48.4" width="3.2" height="3.2"/><rect x="83.6" y="48.4" width="3.2" height="3.2"/><rect x="86.8" y="48.4" width="3.2" height="3.2"/><rect x="42" y="51.6" width="3.2" height="3.2"/><rect x="45.2" y="51.6" width="3.2" height="3.2"/><rect x="51.6" y="51.6" width="3.2" height="3.2"/><rect x="54.8" y="51.6" width="3.2" height="3.2"/><rect x="58" y="51.6" width="3.2" height="3.2"/><rect x="61.2" y="51.6" width="3.2" height="3.2"/><rect x="74" y="51.6" width="3.2" height="3.2"/><rect x="83.6" y="51.6" width="3.2" height="3.2"/><rect x="10" y="54.8" width="3.2" height="3.2"/><rect x="16.4" y="54.8" width="3.2" height="3.2"/><rect x="29.2" y="54.8" width="3.2" height="3.2"/><rect x="32.4" y="54.8" width="3.2" height="3.2"/><rect x="35.6" y="54.8" width="3.2" height="3.2"/><rect x="42" y="54.8" width="3.2" height="3.2"/><rect x="51.6" y="54.8" width="3.2" height="3.2"/><rect x="64.4" y="54.8" width="3.2" height="3.2"/><rect x="67.6" y="54.8" width="3.2" height="3.2"/><rect x="77.2" y="54.8" width="3.2" height="3.2"/><rect x="83.6" y="54.8" width="3.2" height="3.2"/><rect x="86.8" y="54.8" width="3.2" height="3.2"/><rect x="13.2" y="58" width="3.2" height="3.2"/><rect x="16.4" y="58" width="3.2" height="3.2"/><rect x="19.6" y="58" width="3.2" height="3.2"/><rect x="35.6" y="58" width="3.2" height="3.2"/><rect x="42" y="58" width="3.2" height="3.2"/><rect x="45.2" y="58" width="3.2" height="3.2"/><rect x="61.2" y="58" width="3.2" height="3.2"/><rect x="67.6" y="58" width="3.2" height="3.2"/><rect x="70.8" y="58" width="3.2" height="3.2"/><rect x="10" y="61.2" width="3.2" height="3.2"/><rect x="19.6" y="61.2" width="3.2" height="3.2"/><rect x="22.8" y="61.2" width="3.2" height="3.2"/><rect x="29.2" y="61.2" width="3.2" height="3.2"/><rect x="32.4" y="61.2" width="3.2" height="3.2"/><rect x="42" y="61.2" width="3.2" height="3.2"/><rect x="48.4" y="61.2" width="3.2" height="3.2"/><rect x="61.2" y="61.2" width="3.2" height="3.2"/><rect x="64.4" y="61.2" width="3.2" height="3.2"/><rect x="67.6" y="61.2" width="3.2" height="3.2"/><rect x="70.8" y="61.2" width="3.2" height="3.2"/><rect x="74" y="61.2" width="3.2" height="3.2"/><rect x="80.4" y="61.2" width="3.2" height="3.2"/><rect x="86.8" y="61.2" width="3.2" height="3.2"/><rect x="35.6" y="64.4" width="3.2" height="3.2"/><rect x="38.8" y="64.4" width="3.2" height="3.2"/><rect x="45.2" y="64.4" width="3.2" height="3.2"/><rect x="48.4" y="64.4" width="3.2" height="3.2"/><rect x="51.6" y="64.4" width="3.2" height="3.2"/><rect x="54.8" y="64.4" width="3.2" height="3.2"/><rect x="61.2" y="64.4" width="3.2" height="3.2"/><rect x="74" y="64.4" width="3.2" height="3.2"/><rect x="83.6" y="64.4" width="3.2" height="3.2"/><rect x="35.6" y="67.6" width="3.2" height="3.2"/><rect x="42" y="67.6" width="3.2" height="3.2"/><rect x="45.2" y="67.6" width="3.2" height="3.2"/><rect x="48.4" y="67.6" width="3.2" height="3.2"/><rect x="54.8" y="67.6" width="3.2" height="3.2"/><rect x="58" y="67.6" width="3.2" height="3.2"/><rect x="61.2" y="67.6" width="3.2" height="3.2"/><rect x="67.6" y="67.6" width="3.2" height="3.2"/><rect x="74" y="67.6" width="3.2" height="3.2"/><rect x="77.2" y="67.6" width="3.2" height="3.2"/><rect x="83.6" y="67.6" width="3.2" height="3.2"/><rect x="86.8" y="67.6" width="3.2" height="3.2"/><rect x="35.6" y="70.8" width="3.2" height="3.2"/><rect x="48.4" y="70.8" width="3.2" height="3.2"/><rect x="51.6" y="70.8" width="3.2" height="3.2"/><rect x="61.2" y="70.8" width="3.2" height="3.2"/><rect x="74" y="70.8" width="3.2" height="3.2"/><rect x="77.2" y="70.8" width="3.2" height="3.2"/><rect x="83.6" y="70.8" width="3.2" height="3.2"/><rect x="86.8" y="70.8" width="3.2" height="3.2"/><rect x="35.6" y="74" width="3.2" height="3.2"/><rect x="42" y="74" width="3.2" height="3.2"/><rect x="45.2" y="74" width="3.2" height="3.2"/><rect x="54.8" y="74" width="3.2" height="3.2"/><rect x="58" y="74" width="3.2" height="3.2"/><rect x="61.2" y="74" width="3.2" height="3.2"/><rect x="64.4" y="74" width="3.2" height="3.2"/><rect x="67.6" y="74" width="3.2" height="3.2"/><rect x="70.8" y="74" width="3.2" height="3.2"/><rect x="74" y="74" width="3.2" height="3.2"/><rect x="80.4" y="74" width="3.2" height="3.2"/><rect x="45.2" y="77.2" width="3.2" height="3.2"/><rect x="58" y="77.2" width="3.2" height="3.2"/><rect x="61.2" y="77.2" width="3.2" height="3.2"/><rect x="74" y="77.2" width="3.2" height="3.2"/><rect x="77.2" y="77.2" width="3.2" height="3.2"/><rect x="35.6" y="80.4" width="3.2" height="3.2"/><rect x="42" y="80.4" width="3.2" height="3.2"/><rect x="51.6" y="80.4" width="3.2" height="3.2"/><rect x="58" y="80.4" width="3.2" height="3.2"/><rect x="61.2" y="80.4" width="3.2" height="3.2"/><rect x="64.4" y="80.4" width="3.2" height="3.2"/><rect x="67.6" y="80.4" width="3.2" height="3.2"/><rect x="70.8" y="80.4" width="3.2" height="3.2"/><rect x="77.2" y="80.4" width="3.2" height="3.2"/><rect x="86.8" y="80.4" width="3.2" height="3.2"/><rect x="35.6" y="83.6" width="3.2" height="3.2"/><rect x="38.8" y="83.6" width="3.2" height="3.2"/><rect x="45.2" y="83.6" width="3.2" height="3.2"/><rect x="58" y="83.6" width="3.2" height="3.2"/><rect x="61.2" y="83.6" width="3.2" height="3.2"/><rect x="70.8" y="83.6" width="3.2" height="3.2"/><rect x="74" y="83.6" width="3.2" height="3.2"/><rect x="77.2" y="83.6" width="3.2" height="3.2"/><rect x="80.4" y="83.6" width="3.2" height="3.2"/><rect x="86.8" y="83.6" width="3.2" height="3.2"/><rect x="35.6" y="86.8" width="3.2" height="3.2"/><rect x="42" y="86.8" width="3.2" height="3.2"/><rect x="48.4" y="86.8" width="3.2" height="3.2"/><rect x="61.2" y="86.8" width="3.2" height="3.2"/><rect x="64.4" y="86.8" width="3.2" height="3.2"/><rect x="74" y="86.8" width="3.2" height="3.2"/><rect x="83.6" y="86.8" width="3.2" height="3.2"/><rect x="86.8" y="86.8" width="3.2" height="3.2"/><path d="M29.23,10h-16A3.2,3.2,0,0,0,10,13.2h0v16h0a3.2,3.2,0,0,0,3.2,3.2h16a3.2,3.2,0,0,0,3.2-3.2h0v-16h0a3.2,3.2,0,0,0-3.2-3.2Zm0,6.4V26h0A3.2,3.2,0,0,1,26,29.2h-9.6a3.2,3.2,0,0,1-3.2-3.2h0V16.4h0a3.2,3.2,0,0,1,3.2-3.2H26a3.2,3.2,0,0,1,3.2,3.2Z"/><polygon points="22.8 16.4 22.8 16.4 19.6 16.4 16.4 16.4 16.4 19.6 16.4 22.8 16.4 26 19.6 26 22.8 26 22.8 26 26 26 26 22.8 26 19.6 26 16.4 22.8 16.4"/><path d="M86.83,10h-16a3.2,3.2,0,0,0-3.2,3.2h0v16h0a3.2,3.2,0,0,0,3.2,3.2h16A3.2,3.2,0,0,0,90,29.2h0v-16h0a3.2,3.2,0,0,0-3.2-3.2Zm0,6.4V26h0a3.2,3.2,0,0,1-3.2,3.2H74a3.2,3.2,0,0,1-3.2-3.2h0V16.4h0A3.2,3.2,0,0,1,74,13.2h9.6a3.2,3.2,0,0,1,3.2,3.2Z"/><polygon points="80.4 16.4 80.4 16.4 77.2 16.4 74 16.4 74 19.6 74 22.8 74 26 77.2 26 80.4 26 80.4 26 83.6 26 83.6 22.8 83.6 19.6 83.6 16.4 80.4 16.4"/><polygon points="22.8 74 22.8 74 19.6 74 16.4 74 16.4 77.2 16.4 80.4 16.4 83.6 19.6 83.6 22.8 83.6 22.8 83.6 26 83.6 26 80.4 26 77.2 26 74 22.8 74"/><path d="M29.23,67.6h-16A3.2,3.2,0,0,0,10,70.8h0v16h0a3.2,3.2,0,0,0,3.2,3.2h16a3.2,3.2,0,0,0,3.2-3.2h0v-16h0a3.2,3.2,0,0,0-3.2-3.2Zm0,6.4v9.6h0A3.2,3.2,0,0,1,26,86.8h-9.6a3.2,3.2,0,0,1-3.2-3.2h0V74h0a3.2,3.2,0,0,1,3.2-3.2H26a3.2,3.2,0,0,1,3.2,3.2Z"/></g></g></svg>