<svg xmlns="http://www.w3.org/2000/svg" viewBox="0 0 444.36 124.18"><defs><style>.cls-1{fill:#4d77fa;}.cls-2{fill:#151619;}</style></defs><title>qrcode-chimp</title><g id="Layer_2" data-name="Layer 2"><g id="Layer_3" data-name="Layer 3"><g id="qrcode_chimp" data-name="qrcode chimp"><path class="cls-1" d="M2.21,71.72a3.27,3.27,0,0,1,.45-6.3A18.49,18.49,0,0,0,2.21,71.72Z"/><path class="cls-1" d="M38.05,114.06l0,0v0l-5.32-4v7.6H6.54V91.51l15.82,0c-.05-.78-.06-1.58-.05-2.37a24.1,24.1,0,0,1-3.44-.36A22.39,22.39,0,0,1,9.94,85L3.27,85A3.26,3.26,0,0,0,0,88.24v32.68a3.26,3.26,0,0,0,3.27,3.26H36a3.27,3.27,0,0,0,3.27-3.26v-6Z"/><path class="cls-1" d="M36,0H3.27A3.26,3.26,0,0,0,0,3.27V36a3.27,3.27,0,0,0,3.27,3.27H6.12c.24-.62.51-1.23.81-1.86a21.31,21.31,0,0,1,3.12-4.68H6.54V6.54H32.68V14A38.64,38.64,0,0,1,39.22,3.42V3.27A3.27,3.27,0,0,0,36,0Z"/><path class="cls-1" d="M120.92,0H88.24a3.25,3.25,0,0,0-3,2,14.81,14.81,0,0,1,3.14,4.23,73.9,73.9,0,0,1,3.15,7.33v-7h26.14V32.68h-7.16a18.5,18.5,0,0,1,3.15,6.54h7.28A3.27,3.27,0,0,0,124.18,36V3.27A3.26,3.26,0,0,0,120.92,0Z"/><path class="cls-1" d="M26.14,104.33v3.51a3.26,3.26,0,0,1-3.26,3.27H16.34a3.26,3.26,0,0,1-3.27-3.27v-6.53A3.26,3.26,0,0,1,16.34,98h6.54a2.92,2.92,0,0,1,.51,0Z"/><path class="cls-1" d="M26.14,16.34v6.54a3.25,3.25,0,0,1-1.29,2.6c-1.1.18-2.2.39-3.28.66H16.34a3.26,3.26,0,0,1-3.27-3.26V16.34a3.26,3.26,0,0,1,3.27-3.27h6.54A3.26,3.26,0,0,1,26.14,16.34Z"/><path class="cls-1" d="M101.31,26.14h6.54a3.26,3.26,0,0,0,3.26-3.26V16.34a3.26,3.26,0,0,0-3.26-3.27h-6.54A3.26,3.26,0,0,0,98,16.34v6.54A3.26,3.26,0,0,0,101.31,26.14Z"/><path class="cls-1" d="M118.88,102.57H108.24a5.32,5.32,0,0,0-5.32,5.33v10.64a5.32,5.32,0,0,0,5.32,5.32h10.64a5.32,5.32,0,0,0,5.32-5.32V107.9A5.33,5.33,0,0,0,118.88,102.57Zm-.83,12.89a2.24,2.24,0,0,1-2.25,2.24h-4.48a2.24,2.24,0,0,1-2.25-2.24V111a2.24,2.24,0,0,1,1-1.88,2.19,2.19,0,0,1,1.22-.36h4.48a2.24,2.24,0,0,1,2.25,2.24Z"/><path class="cls-1" d="M5.93,53.05a14.54,14.54,0,0,0,2.21,3.26,23.74,23.74,0,0,0-2.22,2.51H3.27a3.27,3.27,0,1,1,0-6.53h2.3C5.68,52.54,5.8,52.79,5.93,53.05Z"/><path class="cls-1" d="M124.18,55.55a3.26,3.26,0,0,1-3.26,3.27h-4a21.6,21.6,0,0,0-5.2-4.92,13.08,13.08,0,0,0,1.06-1.61h8.09A3.26,3.26,0,0,1,124.18,55.55Z"/><path class="cls-1" d="M124.18,68.63a3.26,3.26,0,0,1-3.26,3.26h-.29a19.33,19.33,0,0,0-.41-6.51v0h.71A3.26,3.26,0,0,1,124.18,68.63Z"/><path class="cls-1" d="M45.75,118.65a38.41,38.41,0,0,0,6.54,2.21v.06a3.27,3.27,0,0,1-6.54,0Z"/><path class="cls-1" d="M70.94,120.83a40.18,40.18,0,0,0,7.49-2.72v2.81a3.26,3.26,0,0,1-3.26,3.26H62.09a3.27,3.27,0,0,1-3.12-2.3c.85.06,1.72.09,2.58.09A39,39,0,0,0,70.94,120.83Z"/><path class="cls-1" d="M39.22,114.93q-.6-.42-1.17-.87Z"/><path class="cls-1" d="M62.16,26.14h-.07a2.73,2.73,0,0,1-.41,0Z"/><path class="cls-2" d="M68.79,89.84a13.9,13.9,0,0,1-3.07,2.67,11.77,11.77,0,0,1-7.81,1.67,10.15,10.15,0,0,1-3.54-1.64l-.31-.35h1.7a33.31,33.31,0,0,0,6.36-.68h0l1.31-.29h0c1.11-.26,2.24-.57,3.36-.93C68.79,89.64,68.79,89.64,68.79,89.84Z"/><path class="cls-1" d="M87.3,65.49a2,2,0,0,1-.54.62,4.1,4.1,0,0,1-1.08.48A3.39,3.39,0,0,1,87.3,65.49Z"/><path class="cls-1" d="M13.47,67.07c-.08.16-.16.34-.23.51A2.94,2.94,0,0,1,13.47,67.07Z"/><path class="cls-2" d="M115.62,67a11.78,11.78,0,0,0-.57-1.64,15.59,15.59,0,0,0-5.36-6.54,17.2,17.2,0,0,0-2.35-1.41,28.6,28.6,0,0,0-4.84-1.71l-.55-.13,1.47-1a20.37,20.37,0,0,0,2.79-2.3,12.94,12.94,0,0,0,2.52-3.15,8.85,8.85,0,0,0,.78-5.4,19.19,19.19,0,0,0-1-4.52,11.92,11.92,0,0,0-5.35-6.54,20.77,20.77,0,0,0-6.64-2.37c-1-.2-2.58-.45-3.49-.57l-1.57-.19h-.07l-1-3.17A160.28,160.28,0,0,0,85,10.82c-.45-1-.9-2-1.35-2.9a8.92,8.92,0,0,0-5.19-4.56,10.78,10.78,0,0,0-4.72-.43c-.43.06-1.13.2-1.81.35l-1,.24C65,5.12,64.83,5.15,62.78,5.05a22.72,22.72,0,0,1-5.59-1,19.07,19.07,0,0,0-4.91-1H51c-2.29,0-2.6,0-3.59.42a10.12,10.12,0,0,0-1.68.84,14.32,14.32,0,0,0-2.42,1.88c-2.27,2.28-4.76,6.52-6.74,11.55-.62,1.55-2.67,7.72-2.67,8s-.22.32,3.5-.47c2.81-.58,5.6-1.07,8.33-1.47,2.22-.32,4.4-.59,6.54-.79s4.42-.36,6.55-.43a83,83,0,0,1,14,.56c1.74.23,3.64.55,5.37.88,3,.58,5.4,1.21,5.74,1.54s.35.3-2.72-.19c-1.19-.18-2.35-.33-3.54-.44-4.88-.47-10-.33-17.75.42l-1.18.12c-2.17.22-2.94.47-1.49.49,1.2,0,2.72.06,4.39.15l.48,0c4.26.27,9.28.76,12.08,1.23,3,.5,7.84,1.71,7.66,1.87s-9.56.5-17.87.72c-4.18.12-7.38.15-11.74.09L47.18,30l-1.43,0a162.19,162.19,0,0,0-16.59.21c-10,.87-15,3.51-17.93,9.38a16.37,16.37,0,0,0-1.67,6.09c-.25,2.29-.12,3.27.62,4.72a9,9,0,0,0,1.32,2,18.48,18.48,0,0,0,4.25,3.4l1.45.91-1.05.45a15.7,15.7,0,0,0-3,1.77,16.59,16.59,0,0,0-5.3,6.44A13.18,13.18,0,0,0,8,75.42c1.79,4,6.13,7.21,11.2,8.18a24,24,0,0,0,7.42,0c.74-.15,1.39-.26,1.44-.26A3.4,3.4,0,0,1,28,84.47c-1.14,6.12-.44,12.34,1.85,16.51.9,1.64,3.25,4.46,3.5,4.19a3.72,3.72,0,0,0-.35-1.24c-1.33-3.53-1.9-5.83-1.9-7.54l0-1L31.65,97a30.35,30.35,0,0,0,5.44,9.42,29.25,29.25,0,0,0,8.66,6.9,33.15,33.15,0,0,0,6.54,2.6,34.46,34.46,0,0,0,17.42.28c.71-.18,1.44-.39,2.19-.64a35.49,35.49,0,0,0,6.53-2.89c.44-.25.85-.5,1.25-.76A27.52,27.52,0,0,0,85,107.46a32.08,32.08,0,0,0,6.51-10.53l0-.08V99.3a31.84,31.84,0,0,1-1.28,4.07,13.33,13.33,0,0,0-.59,1.7c0,.12.42-.2.94-.7.32-.32.63-.66.93-1a19.06,19.06,0,0,0,4-11.85A32.49,32.49,0,0,0,95.08,85l0-.19a10.58,10.58,0,0,1-.19-1.37s.6.09,1.29.22a26,26,0,0,0,7.57,0c6-1.3,10.35-5.08,11.81-10.2a8.78,8.78,0,0,0,.28-1.52A14.4,14.4,0,0,0,115.62,67ZM29.08,76.76c-5.52,2.78-11.73,1.73-15-2.54a6.62,6.62,0,0,1-.89-6.57s0,0,0,0h0v0h0a2.94,2.94,0,0,1,.23-.51v0h0v0a10.94,10.94,0,0,1,6.4-5.28c1.43-.5,1.45-.5,1.58.1.27,1.39.2,1.52-1.28,2.24a9.43,9.43,0,0,0-2,1.28,11.38,11.38,0,0,0-3.48,5.09c-.13.37-.22.65-.27.86h0c-.14.53-.05.55.3.29l.09,0A12.08,12.08,0,0,1,22,69.17h1.36l.78,1.1a17.4,17.4,0,0,0,1.3,1.62,25.18,25.18,0,0,0,3.15,3l1.64,1.31ZM92.23,56.57a34.16,34.16,0,0,1-1.89,8.79c-.13.34-.26.65-.4.94-.76,1.61-2.3,2.66-4.85,3.21a19.4,19.4,0,0,1-3,.41c-2,.15-1.95.11-1.4,1a29.7,29.7,0,0,1,3.61,10.79,49.27,49.27,0,0,1,0,8.84,27.72,27.72,0,0,1-3.25,9.88c-.82,1.35-2.42,3.39-2.21,2.81.92-2.44,1.49-5.59,1.2-6.68-.14-.56,0-.7-1.3,1.5a6.32,6.32,0,0,1-.33.56A25.58,25.58,0,0,1,71.9,106a21.07,21.07,0,0,1-2.28,1.48,17.06,17.06,0,0,1-13,1.35,19.06,19.06,0,0,1-4.32-2,23.13,23.13,0,0,1-6.47-6.19,26.73,26.73,0,0,1-2-3.23,4.72,4.72,0,0,0-.79-1.21,3.8,3.8,0,0,0-.13,1.37,17.94,17.94,0,0,0,1,5.21c.45,1.26.17,1-1.1-.87a28.23,28.23,0,0,1-3.92-9.76,24,24,0,0,1-.38-5.7,27.87,27.87,0,0,1,.38-6,27.3,27.3,0,0,1,2.86-8.59l.26-.45c.45-.82.65-1.31.53-1.36s-.8-.1-1.53-.16c-4.24-.34-6.59-1.3-7.68-3.14a12.07,12.07,0,0,1-.66-1.42,32,32,0,0,1-1.59-6.54c-.11-.78-.19-1.56-.25-2.33a23.75,23.75,0,0,1,.19-4.2A7.93,7.93,0,0,1,31.28,51c.42-1.39,2.17-2.79,4.14-3.31a8.36,8.36,0,0,0,2-1,23.57,23.57,0,0,1,7.93-3.2,18.49,18.49,0,0,1,4.83-.35,18.54,18.54,0,0,1,5.13.43,27.22,27.22,0,0,1,4,1.2c.61.26.23-.21-.75-.95a20.43,20.43,0,0,0-10-3.7l-1.68-.2.92-.2a20.75,20.75,0,0,1,6.92.37,29.87,29.87,0,0,1,5.87,2.25l.92.5,1.87-.9a21.71,21.71,0,0,1,8.55-2.38c.52,0,1,0,1.54,0a19.05,19.05,0,0,1,2.27.25c.43.12.3.17-.82.27a28.59,28.59,0,0,0-3,.46,19.52,19.52,0,0,0-2.19.56,25.32,25.32,0,0,0-5.48,2.85,4.93,4.93,0,0,0-.92.81,6.33,6.33,0,0,0,1.47-.41,20.37,20.37,0,0,1,7.12-1.23h1a18,18,0,0,1,5.17.47l.38.1a21.36,21.36,0,0,1,7.09,3,9.21,9.21,0,0,0,2.09,1c2.18.67,3.75,1.92,4.17,3.3A23.58,23.58,0,0,1,92.23,56.57ZM109.9,71.89a7.9,7.9,0,0,1-2.24,3.52,11.6,11.6,0,0,1-11.43,2.33,14.14,14.14,0,0,1-3.38-1.57A14.44,14.44,0,0,1,94.23,75a26.48,26.48,0,0,0,3.27-3.1,14.59,14.59,0,0,0,1.35-1.71l.7-1.06,1.85.1a9.73,9.73,0,0,1,3,.5,15.45,15.45,0,0,1,3.45,1.66,1.08,1.08,0,0,0,.53.27,11.9,11.9,0,0,0-1.31-3.49,12.57,12.57,0,0,0-2.44-2.8,10.25,10.25,0,0,0-2.27-1.48l-.88-.4V62.39a5,5,0,0,1,.06-1.06s.5.15,1,.31a11.63,11.63,0,0,1,5.76,3.72q.27.35.51.72A6.93,6.93,0,0,1,109.9,71.89Z"/><path class="cls-2" d="M59.25,58.82c0,.06,0,.12-.07.17a20.56,20.56,0,0,1-3.93,6.37A7.4,7.4,0,0,1,53.14,67c-2.32,1.07-12.21.83-15.92-.39a2.48,2.48,0,0,1-1.52-1.2,9.72,9.72,0,0,1-.83-2c-.33-1.05-.72-2.53-.87-3.32-.06-.34-.12-.73-.16-1.17a30.18,30.18,0,0,1-.12-6c0-.21.06-.38.09-.53A1.81,1.81,0,0,1,34.47,51c.67-.6,2.1-1,4.55-1.22a87.19,87.19,0,0,1,12.08.26c3.72.58,6.24,1.31,7.64,2.22a3,3,0,0,1,1.12,1.14C60.33,54.41,60.08,56.73,59.25,58.82Z"/><path class="cls-2" d="M89.47,56.35c-.08.81-.17,1.59-.27,2.33h0a19.67,19.67,0,0,1-1.89,6.81,3.39,3.39,0,0,0-1.62,1.1,32.23,32.23,0,0,1-7.41,1,38.92,38.92,0,0,1-6.15-.16A9.62,9.62,0,0,1,70,67c-2.21-.81-5-4.74-6.39-8.57a15,15,0,0,1-.7-2.66c-.23-1.48-.06-2.33.77-3.05a5.4,5.4,0,0,1,1-.64,23.15,23.15,0,0,1,7.23-2c.64-.09,1.31-.17,2-.23s2.59-.11,4.55-.11H80c6.16.08,8.26.5,9.05,1.84a3.4,3.4,0,0,1,.34.91A12.23,12.23,0,0,1,89.47,56.35Z"/><path class="cls-2" d="M60.58,74.27a7.11,7.11,0,0,1-1.75-.45,13.38,13.38,0,0,1-1.72-.65,3.37,3.37,0,0,1-1.36-1.28c-.79-1.33-.63-3.1.69-3.76a2.76,2.76,0,0,1,3.27.77,2.66,2.66,0,0,1,.9,1.68A11,11,0,0,1,60.58,74.27Z"/><path class="cls-2" d="M67.47,71.52a4,4,0,0,1-1.8,1.73l-.31.14a16.88,16.88,0,0,1-3,.88s0-.88-.06-1.88a5.39,5.39,0,0,1,.32-2.57,3.46,3.46,0,0,1,2-1.79,2.11,2.11,0,0,1,.74-.14,2.27,2.27,0,0,1,2.15,1.18A3.93,3.93,0,0,1,67.47,71.52Z"/><path class="cls-2" d="M80,87.05c0,.29-.08.32-.53.25-.17,0-.54-.08-1-.12l-1.13-.1a22.71,22.71,0,0,0-5.4.36c-1.67.27-3.76.69-6.58,1.31l-.37.09a54.61,54.61,0,0,1-5.69,1l-1.5.14a22.59,22.59,0,0,1-7.07-.48,23.89,23.89,0,0,1-4.63-2.2,22.62,22.62,0,0,1-3.15-2.82,1.56,1.56,0,0,1-.27-.49s.75.3,1.57.69a21.8,21.8,0,0,0,10.9,2.37,33.59,33.59,0,0,0,3.72-.19c.92-.1,2-.23,3.45-.43L65.36,86a37.76,37.76,0,0,1,6.54-.5h.22a21.25,21.25,0,0,1,6.31.78l.17,0C79.73,86.65,80,86.78,80,87.05Z"/><path class="cls-2" d="M68.79,89.84a13.9,13.9,0,0,1-3.07,2.67,11.77,11.77,0,0,1-7.81,1.67,10.15,10.15,0,0,1-3.54-1.64l-.31-.35h1.7a33.31,33.31,0,0,0,6.36-.68h0l1.31-.29h0c1.11-.26,2.24-.57,3.36-.93C68.79,89.64,68.79,89.64,68.79,89.84Z"/><circle class="cls-1" cx="91.24" cy="117.92" r="5.91"/><circle class="cls-1" cx="97.23" cy="107.39" r="2.32"/><path class="cls-1" d="M99.66,94.46h21.21a3.34,3.34,0,0,0,3.34-3.33h0a3.34,3.34,0,0,0-3.34-3.33H99.81s.16,1.81.16,3.12S99.66,94.46,99.66,94.46Z"/><path class="cls-2" d="M194.54,71.11a31,31,0,0,1-13.56,3,30.33,30.33,0,0,1-26.82-15.61,31.81,31.81,0,0,1-4-15.81,31.9,31.9,0,0,1,4-15.77,30.75,30.75,0,0,1,53.68,0,31.63,31.63,0,0,1,4.08,15.77,32.49,32.49,0,0,1-2.81,13.38,30.29,30.29,0,0,1-7,9.79l4.12,6.1-7.68,5ZM181,20.67a20.67,20.67,0,0,0-10.58,2.81,20.9,20.9,0,0,0-7.65,7.85,22.78,22.78,0,0,0-2.86,11.4,22.76,22.76,0,0,0,2.86,11.4A20.58,20.58,0,0,0,181,64.79a21.5,21.5,0,0,0,8.22-1.65l-6.83-10.21L190,47.71l6.71,10.06a20.83,20.83,0,0,0,3.6-5.84,23.78,23.78,0,0,0,1.74-9.2,23,23,0,0,0-2.82-11.44,20.64,20.64,0,0,0-7.65-7.81A20.93,20.93,0,0,0,181,20.67Z"/><path class="cls-2" d="M251.17,72.86,235.54,49.45h-6.87V72.86h-9.59V12.6h20.83a20,20,0,0,1,9.49,2.33,18.36,18.36,0,0,1,7.07,6.56A17.61,17.61,0,0,1,259.14,31a17.3,17.3,0,0,1-2,8.12,18.22,18.22,0,0,1-5.39,6.26,19.54,19.54,0,0,1-5.8,2.92l15.4,22.34v2.19Zm-11.66-32.6a10.6,10.6,0,0,0,4.91-1.2A9.31,9.31,0,0,0,248,35.75a8.8,8.8,0,0,0,.16-9.07,9.53,9.53,0,0,0-3.32-3.42A9,9,0,0,0,240,22H228.67v18.3Z"/><path class="cls-2" d="M283.84,74.15a21.83,21.83,0,0,1-11.4-3.05,21.46,21.46,0,0,1-7.9-8.33A24.61,24.61,0,0,1,261.73,51a24.86,24.86,0,0,1,2.81-11.82,21,21,0,0,1,7.91-8.33,21.93,21.93,0,0,1,11.39-3,20.84,20.84,0,0,1,12,3.34,18.34,18.34,0,0,1,7,8.9l.49,1.29L294.52,45,294,43.67a10.41,10.41,0,0,0-4-5.07,11.59,11.59,0,0,0-6.47-1.73,11,11,0,0,0-6,1.74,12.92,12.92,0,0,0-4.51,5A15.57,15.57,0,0,0,271.32,51,15.57,15.57,0,0,0,273,58.41a12.92,12.92,0,0,0,4.51,5,11,11,0,0,0,6,1.74,12.13,12.13,0,0,0,6.68-1.78,10.55,10.55,0,0,0,4.11-5l.54-1.33,8.74,3.67L303,62a19.48,19.48,0,0,1-7.21,8.81A20.93,20.93,0,0,1,283.84,74.15Z"/><path class="cls-2" d="M327.54,74.15A22.1,22.1,0,0,1,316,71.06a21.62,21.62,0,0,1-8-8.41,25.22,25.22,0,0,1,0-23.33,21.66,21.66,0,0,1,8-8.4,23.17,23.17,0,0,1,23.12,0,21.8,21.8,0,0,1,8,8.4,25.3,25.3,0,0,1,0,23.33,21.76,21.76,0,0,1-8,8.41A22.15,22.15,0,0,1,327.54,74.15Zm0-37.28a12.68,12.68,0,0,0-6.35,1.69,12.55,12.55,0,0,0-4.71,4.87A15.39,15.39,0,0,0,314.7,51a15.36,15.36,0,0,0,1.78,7.56,12.55,12.55,0,0,0,4.71,4.87,12.68,12.68,0,0,0,6.35,1.69,12.39,12.39,0,0,0,6.29-1.69,12.55,12.55,0,0,0,4.68-4.87A15.29,15.29,0,0,0,340.3,51a15.31,15.31,0,0,0-1.79-7.56,12.55,12.55,0,0,0-4.68-4.87A12.39,12.39,0,0,0,327.54,36.87Z"/><path class="cls-2" d="M373.8,74.15a19.7,19.7,0,0,1-10.67-3,21.21,21.21,0,0,1-7.52-8.28A25.42,25.42,0,0,1,352.88,51a25.42,25.42,0,0,1,2.73-11.8,21.08,21.08,0,0,1,7.52-8.33,19.67,19.67,0,0,1,10.67-3,18,18,0,0,1,9.13,2.32,18.94,18.94,0,0,1,3.56,2.62L386.4,31V12.6h9.68V72.86h-9.35V69a19.43,19.43,0,0,1-3.79,2.81A18,18,0,0,1,373.8,74.15Zm.8-37.28a11,11,0,0,0-5.91,1.71,12.54,12.54,0,0,0-4.49,4.94A15.83,15.83,0,0,0,362.48,51a15.83,15.83,0,0,0,1.72,7.47,12.54,12.54,0,0,0,4.49,4.94,11.12,11.12,0,0,0,11.85,0A12.67,12.67,0,0,0,385,58.49a15.72,15.72,0,0,0,1.72-7.5,15.72,15.72,0,0,0-1.72-7.5,12.69,12.69,0,0,0-4.47-4.91A10.88,10.88,0,0,0,374.6,36.87Z"/><path class="cls-2" d="M422.54,74.15a21.49,21.49,0,0,1-11.24-3,21,21,0,0,1-7.78-8.3,24.9,24.9,0,0,1-2.78-11.77,25.92,25.92,0,0,1,2.6-11.54A21.23,21.23,0,0,1,410.77,31,19.94,19.94,0,0,1,422,27.83a21.13,21.13,0,0,1,11.16,2.9,19.23,19.23,0,0,1,7.32,8A25.45,25.45,0,0,1,443,50.19a9.18,9.18,0,0,1-.29,2.46l-.28,1.05H410.55a13.93,13.93,0,0,0,1.9,5.67,11.74,11.74,0,0,0,4.54,4.3,12.41,12.41,0,0,0,5.79,1.44c4.73,0,8.28-2.18,10.87-6.66l.66-1.15,8.31,4-.7,1.32A22.11,22.11,0,0,1,434.25,71,21.47,21.47,0,0,1,422.54,74.15Zm10.15-28.92a12.92,12.92,0,0,0-1.09-3.06,9.52,9.52,0,0,0-3.54-3.76,11.32,11.32,0,0,0-6.16-1.54,10.08,10.08,0,0,0-7.17,2.7,13.06,13.06,0,0,0-3.49,5.66Z"/><path class="cls-1" d="M368.78,107.94a11.73,11.73,0,0,1-5.93-1.54,11.22,11.22,0,0,1-4.2-4.23,12.46,12.46,0,0,1,0-11.93,11.37,11.37,0,0,1,4.2-4.23,11.72,11.72,0,0,1,5.93-1.53,11,11,0,0,1,4.61,1A10.8,10.8,0,0,1,377,88.17l.45.51-2.84,2.74-.49-.58a7.26,7.26,0,0,0-2.4-1.94,6.94,6.94,0,0,0-3-.61,7.77,7.77,0,0,0-3.87,1A7.36,7.36,0,0,0,362.13,92a8.94,8.94,0,0,0,0,8.33,7.32,7.32,0,0,0,2.78,2.77,7.81,7.81,0,0,0,3.87,1,7.51,7.51,0,0,0,6-2.9l.49-.58,2.86,2.76-.43.52a11.31,11.31,0,0,1-3.87,2.93A11.62,11.62,0,0,1,368.78,107.94Z"/><path class="cls-1" d="M389.71,107.47v-10A3.29,3.29,0,0,0,388.9,95a3,3,0,0,0-2.19-.78,2.9,2.9,0,0,0-1.75.58,4.46,4.46,0,0,0-1.83,3.57v9.08h-3.94V85h3.94V92a7.33,7.33,0,0,1,.89-.61,6.57,6.57,0,0,1,3.29-.86A6,6,0,0,1,392,92.39a6.78,6.78,0,0,1,1.63,4.73v10.35Z"/><path class="cls-1" d="M396,107.47V91h3.9v16.45ZM398,89.68a2.53,2.53,0,0,1-2.51-2.51,2.37,2.37,0,0,1,.75-1.77,2.51,2.51,0,0,1,4.27,1.77,2.46,2.46,0,0,1-.71,1.76A2.42,2.42,0,0,1,398,89.68Z"/><path class="cls-1" d="M422.16,107.47v-10a3.79,3.79,0,0,0-.67-2.55,2.53,2.53,0,0,0-2-.71,2.7,2.7,0,0,0-1.62.52,3.59,3.59,0,0,0-1.19,1.46,4.66,4.66,0,0,0-.45,2v9.2H412.3V97.53a3.9,3.9,0,0,0-.67-2.58,2.54,2.54,0,0,0-2-.71,2.7,2.7,0,0,0-1.61.53,3.79,3.79,0,0,0-1.2,1.49,5,5,0,0,0-.45,2.07v9.14h-3.93V91h3.82v1.09a6.61,6.61,0,0,1,1-.7,6,6,0,0,1,3.1-.87,5.85,5.85,0,0,1,3.27.92,5.13,5.13,0,0,1,1.44,1.38,6.74,6.74,0,0,1,1.65-1.4,6.53,6.53,0,0,1,3.42-.9,5.47,5.47,0,0,1,4.45,1.84,7.21,7.21,0,0,1,1.48,4.74v10.35Z"/><path class="cls-1" d="M428.11,113.83V91h3.82v1.16a6.89,6.89,0,0,1,1.1-.76,6.81,6.81,0,0,1,3.43-.88,7.55,7.55,0,0,1,4,1.14,8,8,0,0,1,2.85,3.14,10.13,10.13,0,0,1,0,8.86,8,8,0,0,1-2.85,3.12,7.46,7.46,0,0,1-4,1.14,6.81,6.81,0,0,1-3.43-.88,6.55,6.55,0,0,1-1-.66v7.43Zm8.05-19.59a3.91,3.91,0,0,0-2.07.6,4.24,4.24,0,0,0-1.56,1.73,6.24,6.24,0,0,0,0,5.34,4.24,4.24,0,0,0,1.56,1.73,3.91,3.91,0,0,0,2.07.6,3.86,3.86,0,0,0,2.07-.6,4.38,4.38,0,0,0,1.58-1.74,6.08,6.08,0,0,0,0-5.31,4.35,4.35,0,0,0-1.58-1.75A3.88,3.88,0,0,0,436.16,94.24Z"/></g></g></g></svg>